<svg width="44" height="40" viewBox="0 0 44 40" fill="none" xmlns="http://www.w3.org/2000/svg">
<path fill-rule="evenodd" clip-rule="evenodd" d="M22 22.9974C22 21.8943 22.8877 21 24 21C25.1046 21 26 21.8909 26 22.9974V36H28V21.9965C28 18.6815 25.3165 16 22 16C18.6853 16 16 18.6845 16 21.9965V36H22V22.9974ZM12 21.9965C12 16.4756 16.4759 12 22 12C27.5228 12 32 16.4696 32 21.9965V36H35.9983C37.1038 36 38 36.8877 38 38C38 39.1046 37.1107 40 35.9983 40H8.00174C6.89621 40 6 39.1123 6 38C6 36.8954 6.88926 36 8.00174 36H12V21.9965ZM36 24C36 22.8954 36.8867 22 37.9981 22H42.0019C43.1054 22 44 22.8877 44 24C44 25.1046 43.1133 26 42.0019 26H37.9981C36.8946 26 36 25.1123 36 24ZM20 1.9981C20 0.89458 20.8877 0 22 0C23.1046 0 24 0.886706 24 1.9981V6.0019C24 7.10542 23.1123 8 22 8C20.8954 8 20 7.11329 20 6.0019V1.9981ZM0 24C0 22.8954 0.886706 22 1.9981 22H6.0019C7.10542 22 8 22.8877 8 24C8 25.1046 7.11329 26 6.0019 26H1.9981C0.89458 26 0 25.1123 0 24ZM36.4653 11.4059C35.6881 12.1909 34.4218 12.1972 33.6369 11.42C32.852 10.6428 32.8457 9.37653 33.6228 8.59161L36.592 5.59283C37.3691 4.80791 38.6354 4.80162 39.4203 5.57877C40.2053 6.35593 40.2116 7.62225 39.4344 8.40717L36.4653 11.4059ZM10.4344 8.59161C11.2116 9.37653 11.2053 10.6428 10.4204 11.42C9.63543 12.1972 8.36911 12.1909 7.59196 11.4059L4.62284 8.40717C3.84569 7.62225 3.85198 6.35593 4.6369 5.57877C5.42182 4.80162 6.68814 4.80791 7.46529 5.59283L10.4344 8.59161Z" fill="white"/>
</svg>
