<svg width="48" height="42" viewBox="0 0 48 42" fill="none" xmlns="http://www.w3.org/2000/svg">
<path d="M47.3739 8.94776C47.0087 8.58254 46.487 8.4782 45.913 8.4782H34.9565V2.21733C34.9565 1.0695 33.913 0.130371 32.7652 0.130371H15.2348C14.087 0.130371 13.0435 1.0695 13.0435 2.21733V8.4782H2.08696C0.93913 8.4782 0 9.15646 0 10.3043V39.7825C0 40.9304 0.93913 41.8695 2.08696 41.8695H45.913C47.0609 41.8695 48 40.9304 48 39.7825V10.4086C48 9.83472 47.7913 9.36515 47.3739 8.94776ZM17.2174 4.30428H30.7826V8.4782H17.2174V4.30428ZM43.8261 37.6956H4.17391V12.6521H43.8261V37.6956ZM15.4957 24.913C15.4957 23.9217 16.3304 23.0869 17.3217 23.0869H21.913V18.4434C21.913 17.4521 22.7478 16.6173 23.7391 16.6173C24.7304 16.6173 25.5652 17.4521 25.5652 18.4434V23.0869H30.6783C31.6696 23.0869 32.5043 23.9217 32.5043 24.913C32.5043 25.9043 31.6696 26.7391 30.6783 26.7391H25.5652V31.6434C25.5652 32.6347 24.7304 33.4695 23.7391 33.4695C22.7478 33.4695 21.913 32.6869 21.913 31.6434V26.7391H17.3217C16.3304 26.7391 15.4957 25.9043 15.4957 24.913Z" fill="white"/>
</svg>
