<svg width="48" height="48" viewBox="0 0 48 48" fill="none" xmlns="http://www.w3.org/2000/svg">
<path d="M40.0014 4.7998V11.2001H36.8017V4.7998H33.6016V14.3998H40.0014V19.1998H43.2016V4.7998H40.0014Z" fill="white"/>
<path d="M22.3989 9.5998C22.3989 6.94972 24.5488 4.7998 27.1989 4.7998C29.85 4.7998 32.0004 6.94972 31.9989 9.5998C31.9989 10.9236 31.4613 12.1236 30.5925 12.992L26.9234 16.0001H31.9984V19.1998H22.3984V16.0001L28.3293 10.7297C28.505 10.5531 28.7988 10.1748 28.7988 9.5998C28.7988 8.71564 28.0831 7.99996 27.1989 7.99996C26.3157 7.99996 25.5986 8.71564 25.5986 9.5998H22.3989Z" fill="white"/>
<path d="M36.8017 22.4004C35.0344 22.4004 33.6016 23.8313 33.6016 25.6006V35.2006C33.6016 36.9698 35.0344 38.4002 36.8017 38.4002H40.0014C41.7688 38.4002 43.2016 36.966 43.2016 35.2006V22.4004H36.8017ZM40.0014 35.2006H36.8017V25.6006H40.0014V35.2006Z" fill="white"/>
<path d="M22.4002 36.8007V40.0004H14.4V25.6004C14.4 23.8311 12.9672 22.4002 11.1998 22.4002H8.00016V17.6002C8.00016 12.2972 12.3 8.00021 17.6002 8.00021H19.2V4.80005H17.6002C10.5341 4.80005 4.8 10.5284 4.8 17.6002V35.2004C4.8 36.9658 6.2328 38.4 8.00016 38.4H11.1998V40.0004C11.1998 41.7677 12.6326 43.2 14.4 43.2H25.5998V36.8007H22.4002ZM8.00016 35.2004V25.6004H11.1998V35.2004H8.00016Z" fill="white"/>
</svg>
