<svg width="40" height="40" viewBox="0 0 40 40" fill="none" xmlns="http://www.w3.org/2000/svg">
<path d="M13.664 2.33697C16.7852 -0.784261 21.8545 -0.7755 24.9723 2.34234C28.0965 5.46653 28.0994 10.529 24.9777 13.6507L13.6532 24.9751C10.532 28.0964 5.46273 28.0876 2.34489 24.9698C-0.779299 21.8456 -0.782171 16.7831 2.33952 13.6614L13.664 2.33697ZM22.9289 37.0711C19.0237 33.1658 19.0237 26.8342 22.9289 22.9289C26.8342 19.0237 33.1658 19.0237 37.0711 22.9289C40.9763 26.8342 40.9763 33.1658 37.0711 37.0711C33.1658 40.9763 26.8342 40.9763 22.9289 37.0711ZM27.413 35.4154C29.6432 36.4808 32.3954 36.0899 34.2426 34.2426C36.0899 32.3954 36.4808 29.6432 35.4154 27.413L27.413 35.4154ZM32.587 24.5846C30.3568 23.5192 27.6046 23.9101 25.7574 25.7574C23.9101 27.6046 23.5192 30.3568 24.5846 32.587L32.587 24.5846ZM10.8302 10.8276L16.487 16.4845L22.1493 10.8222C23.7081 9.26345 23.7068 6.73366 22.1439 5.17076C20.5849 3.61174 18.0482 3.60955 16.4924 5.16539L10.8302 10.8276Z" fill="#8F8CFF"/>
</svg>
