<svg width="43" height="43" viewBox="0 0 43 43" fill="none" xmlns="http://www.w3.org/2000/svg">
<path fill-rule="evenodd" clip-rule="evenodd" d="M33.1135 11.9003L35.9446 14.7314C37.5052 16.292 37.5017 18.8258 35.9441 20.3833L18.9691 37.3583C17.4082 38.9192 14.878 38.9196 13.3172 37.3588L11.9003 35.9419L10.4846 37.3576C9.70434 38.1378 8.44484 38.1433 7.65897 37.3575L3.41078 41.603C2.63205 42.3817 1.37305 42.3852 0.586556 41.5988C-0.194493 40.8177 -0.195141 39.552 0.582356 38.7745L4.8292 34.5277C4.04755 33.746 4.05015 32.4783 4.82772 31.7007L6.24341 30.285L4.82651 28.8681C3.2659 27.3075 3.2694 24.7738 4.82696 23.2162L21.802 6.24117C23.3629 4.68031 25.8931 4.67988 27.4539 6.24073L30.285 9.07184L33.1135 6.24341L30.2808 3.41078C29.5021 2.63205 29.4985 1.37305 30.285 0.586556C31.0661 -0.194493 32.3318 -0.195141 33.1093 0.582356L41.603 9.07604C42.3817 9.85477 42.3852 11.1138 41.5988 11.9003C40.8177 12.6813 39.552 12.682 38.7745 11.9045L35.9419 9.07184L33.1135 11.9003ZM33.1117 17.5509L30.2849 14.7288L21.7998 23.214L24.6254 26.0396L33.1117 17.5509ZM16.1478 34.5228L7.66388 26.0442L13.3178 20.3888L21.7975 28.8685L16.1478 34.5228ZM24.6277 9.07228L27.4561 11.9007L18.9713 20.3855L16.1457 17.56L24.6277 9.07228Z" fill="white"/>
</svg>
