<svg width="40" height="42" viewBox="0 0 40 42" fill="none" xmlns="http://www.w3.org/2000/svg">
<path d="M8 0C9.65685 0 11 1.34181 11 3.00434V7.10022C11 8.75947 9.65348 10.1046 8 10.1046C6.41252 10.1046 5.11302 8.87276 5.00699 7.30728C4.40562 7.65522 4 8.31017 4 9.06028V17H22V9.06028C22 8.3093 21.5947 7.65443 20.993 7.30678C20.8868 8.86968 19.5843 10.1046 18 10.1046C16.3431 10.1046 15 8.76275 15 7.10022V3.00434C15 1.34509 16.3465 0 18 0C19.6569 0 21 1.34181 21 3.00434C23.8375 3.5631 26 6.05594 26 9.06028V18.1493C26 24.2921 21.1142 29.0164 15.0276 29.0164L15 35.2135C15 37.1837 17.1214 38.6072 19.0189 37.6314C19.9018 37.1773 23.7507 33.7997 24.0603 33.5447C25.5494 32.3187 26.8653 31.5919 28.312 31.4104C29.111 29.0107 31.3558 27.2823 34 27.2823C37.3137 27.2823 40 29.9967 40 33.345C40 36.6934 37.3137 39.4078 34 39.4078C31.4478 39.4078 29.2678 37.7976 28.4006 35.5278C27.9091 35.7016 27.3253 36.0702 26.587 36.6781C26.3286 36.8908 22.1169 40.5734 20.8332 41.2335C16.2025 43.6149 11 40.124 11 35.2135V29.0163C4.94018 28.9943 0 24.285 0 18.1493V9.06028C0 6.05667 2.16341 3.56342 5 3.08344C5 1.34509 6.34652 0 8 0ZM4.63136 21.0418C5.74335 23.4294 8.20407 25.0136 11.0426 25.0136H15.0276C17.867 25.0136 20.2893 23.4289 21.3809 21.0418H4.63136ZM34 35.366C35.1046 35.366 36 34.4612 36 33.345C36 32.2289 35.1046 31.3241 34 31.3241C32.8954 31.3241 32 32.2289 32 33.345C32 34.4612 32.8954 35.366 34 35.366Z" fill="#FE8B71"/>
</svg>
