<svg width="36" height="40" viewBox="0 0 36 40" fill="none" xmlns="http://www.w3.org/2000/svg">
<path fill-rule="evenodd" clip-rule="evenodd" d="M12.0118 34.6628C9.67528 33.8424 8 31.6169 8 29C8 25.6863 10.6863 23 14 23C15.4801 23 16.6458 23.4069 17.3258 24C18.0019 24 18.4292 23.9928 18.6933 23.9928C19.6618 23.3522 20.8053 23 22 23C25.3137 23 28 25.6863 28 29C28 32.3137 25.4441 34.2022 24 34.6505V36H32V4H24V9.34955C25.4441 9.79779 28 11.6863 28 15C28 18.3137 25.3137 21 22 21C20.8053 21 19.6618 20.6478 18.6933 20.0072C18.4292 20.0072 18.0019 20 17.3258 20C16.6458 20.5931 15.4801 21 14 21C10.6863 21 8 18.3137 8 15C8 12.3831 9.67528 10.1576 12.0118 9.33724C12.0118 8.98014 12.0069 6.04762 12.0034 4H4V36H12.0089C12.0106 35.3723 12.0118 34.8446 12.0118 34.6628ZM20 36V33C20 31.8954 20.8954 31 22 31C23.1046 31 24 30.1046 24 29C24 27.8954 23.1046 27 22 27C21.5041 27 21.0413 27.1785 20.6776 27.4995C20.3122 27.822 19.8416 28 19.3542 28H16.6458C16.1584 28 15.6878 27.822 15.3224 27.4995C14.9587 27.1785 14.4959 27 14 27C12.8954 27 12 27.8954 12 29C12 30.1046 12.8954 31 14 31C15.1046 31 16 31.8954 16 33V36H20ZM16 4V11C16 12.1046 15.1046 13 14 13C12.8954 13 12 13.8954 12 15C12 16.1046 12.8954 17 14 17C14.4959 17 14.9587 16.8215 15.3224 16.5005C15.6878 16.178 16.1584 16 16.6458 16H19.3542C19.8416 16 20.3122 16.178 20.6776 16.5005C21.0413 16.8215 21.5041 17 22 17C23.1046 17 24 16.1046 24 15C24 13.8954 23.1046 13 22 13C20.8954 13 20 12.1046 20 11V4H16ZM0 4.00003C0 1.79087 1.78525 0 3.99018 0H32.0098C34.2135 0 36 1.79642 36 4.00003V36C36 38.2091 34.2148 40 32.0098 40H3.99018C1.78646 40 0 38.2036 0 36V4.00003Z" fill="#19A4AD"/>
</svg>
