<svg width="40" height="42" viewBox="0 0 40 42" fill="none" xmlns="http://www.w3.org/2000/svg">
<path fill-rule="evenodd" clip-rule="evenodd" d="M18 38V4C18 4 14.8914 4 14.1041 6.25673L15.1352 7.48547C15.8444 8.33073 15.7412 9.58507 14.8914 10.2981C14.0475 11.0063 12.7943 10.9021 12.0791 10.0498L11.238 9.04741L11.0144 9.09062C9.00377 9.47922 7.45261 11.0703 7.07166 13.0511C7.3694 13.0174 7.67211 13 7.97886 13C9.4536 13 10.8741 13.4036 12.1103 14.1549C13.0524 14.7275 13.3532 15.9574 12.7822 16.902C12.2111 17.8466 10.9845 18.1482 10.0424 17.5756C9.42541 17.2007 8.71926 17 7.97886 17C5.77556 17 3.98943 18.7909 3.98943 21C3.98943 23.2091 5.77556 25 7.97886 25C8.71718 25 9.42143 24.8005 10.0372 24.4275C10.9802 23.8564 12.2064 24.1599 12.776 25.1053C13.3456 26.0508 13.0429 27.2802 12.1 27.8513C10.8661 28.5986 9.44943 29 7.97886 29C7.37772 29 6.7921 28.9333 6.22896 28.807C6.06818 29.1779 5.98415 29.5796 5.98415 30C5.98415 31.5492 7.16281 32.8414 8.68526 32.9863L9.17092 33.0325L10.0791 31.9502C10.7943 31.0979 12.0475 30.9937 12.8914 31.7019C13.7412 32.4149 13.8444 33.6693 13.1352 34.5145L12.1077 35.739C13.1352 38 18 38 18 38ZM31.209 32.9863C32.7315 32.8414 33.9102 31.5492 33.9102 30C33.9102 29.5875 33.8293 29.1931 33.6744 28.8281C33.141 28.9407 32.588 29 32.0211 29C30.5506 29 29.1339 28.5986 27.9 27.8513C26.9571 27.2802 26.6544 26.0508 27.224 25.1053C27.7936 24.1599 29.0198 23.8564 29.9628 24.4275C30.5786 24.8005 31.2828 25 32.0211 25C32.7692 25 33.4692 24.7936 34.0675 24.4344L34.5654 23.9902C35.4145 23.2326 35.9049 22.1606 35.9049 21C35.9049 19.7604 35.344 18.6216 34.3923 17.8639L33.8943 17.4674C33.3358 17.1691 32.6982 17 32.0211 17C31.2807 17 30.5746 17.2007 29.9576 17.5756C29.0155 18.1482 27.7889 17.8466 27.2178 16.902C26.6468 15.9574 26.9476 14.7275 27.8897 14.1549C29.1259 13.4036 30.5464 13 32.0211 13C32.2909 13 32.5575 13.0134 32.8204 13.0396C32.4357 11.0641 30.8866 9.47846 28.8799 9.09062L28.6836 9.05268L27.8469 10.0498C27.1318 10.9021 25.8786 11.0063 25.0346 10.2981C24.1848 9.58507 24.0816 8.33073 24.7908 7.48547L25.8002 6.28249C25.0346 3.99719 22 3.99719 22 3.99719V38C22 38 27.0346 38 27.7966 35.7132L26.7908 34.5145C26.0816 33.6693 26.1848 32.4149 27.0346 31.7019C27.8786 30.9937 29.1318 31.0979 29.8469 31.9502L30.7527 33.0297L31.209 32.9863ZM37.8996 30C37.8996 33.6401 35.1284 36.6313 31.586 36.9684C30.7734 39.3153 28.0681 42 20 42C11.9319 42 9.12085 39.3153 8.30832 36.9684C4.76585 36.6313 1.99471 33.6401 1.99471 30C1.99471 28.9179 2.23961 27.8931 2.67686 26.9784C1.03452 25.5131 0 23.3777 0 21C0 18.4602 1.18046 16.1968 3.02127 14.7313C3.00193 14.4901 2.99207 14.2462 2.99207 14C2.99207 9.61538 6.11922 5.96308 10.2593 5.16292C10.9343 3.05633 13.339 0 20 0C26.661 0 28.96 3.05633 29.635 5.16292C33.7751 5.96308 36.9022 9.61538 36.9022 14C36.9022 14.2196 36.8944 14.4374 36.879 14.6531C38.7768 16.1156 40 18.4146 40 21C40 23.4135 38.9341 25.5774 37.2485 27.0442C37.6663 27.9421 37.8996 28.9438 37.8996 30Z" fill="#39B72E"/>
</svg>
