<svg width="44" height="44" viewBox="0 0 44 44" fill="none" xmlns="http://www.w3.org/2000/svg">
<path fill-rule="evenodd" clip-rule="evenodd" d="M39.6586 36H42.0019C43.1054 36 44 36.8877 44 38C44 39.1046 43.1133 40 42.0019 40H39.6586C38.8349 42.3304 36.6124 44 34 44C30.6863 44 28 41.3137 28 38C28 35.3876 29.6696 33.1651 32 32.3414V30H21.5859C21.8557 30.9537 22 31.96 22 33C22 39.0751 17.0751 44 11 44C4.92487 44 0 39.0751 0 33C0 27.6079 3.87976 23.1219 9 22.1814V6.00507C9 4.89904 8.10141 4 7 4H3C1.89543 4 1 3.10457 1 2C1 0.89543 1.89543 0 3 0H7C10.311 0 13 2.69034 13 6.00507V12H28.0029C32.4187 12 36 15.5828 36 20.0007V32.3414C37.7048 32.944 39.056 34.2952 39.6586 36ZM13 16V22.1814C15.5951 22.6581 17.8715 24.0455 19.4857 26H32V20.0007C32 17.7915 30.2092 16 28.0029 16H13ZM4 33C4 36.866 7.13401 40 11 40C14.866 40 18 36.866 18 33C18 29.829 15.8915 27.1504 13 26.2899V33C13 34.1046 12.1046 35 11 35C9.89543 35 9 34.1046 9 33V26.2899C6.10851 27.1504 4 29.829 4 33ZM34 40C35.1046 40 36 39.1046 36 38C36 36.8954 35.1046 36 34 36C32.8954 36 32 36.8954 32 38C32 39.1046 32.8954 40 34 40Z" fill="#FE8ACF"/>
</svg>
